<svg viewBox="0 0 200 200" fill="none" xmlns="http://www.w3.org/2000/svg">
<path d="M131.241 69.8728V71.0043H121.173V52.6012H122.515V69.8728H131.241Z" fill="black"/>
<path d="M108.538 69.8988L108.512 71.0043H97.4674V52.6012H108.512V53.7066H98.8089V61.146H106.884V62.2254H98.8089V69.8988H108.538Z" fill="black"/>
<path d="M84.6056 61.7962C84.6056 63.2182 84.3929 64.4971 83.9675 65.6329C83.542 66.7688 82.9429 67.7355 82.1701 68.5332C81.3973 69.3309 80.4683 69.9422 79.3829 70.3671C78.3063 70.7919 77.1167 71.0043 75.8143 71.0043H69.0808V52.6012H75.8143C77.1167 52.6012 78.3063 52.8136 79.3829 53.2384C80.4683 53.6633 81.3973 54.2746 82.1701 55.0723C82.9429 55.8699 83.542 56.8367 83.9675 57.9725C84.3929 59.1084 84.6056 60.3829 84.6056 61.7962ZM83.2251 61.7962C83.2251 60.513 83.0471 59.3685 82.6911 58.3627C82.3351 57.3569 81.8315 56.5072 81.1803 55.8136C80.5291 55.1199 79.7476 54.591 78.8359 54.2269C77.9242 53.8627 76.917 53.6806 75.8143 53.6806H70.4223V69.9249H75.8143C76.917 69.9249 77.9242 69.7428 78.8359 69.3786C79.7476 69.0145 80.5291 68.4855 81.1803 67.7919C81.8315 67.0983 82.3351 66.2486 82.6911 65.2428C83.0471 64.237 83.2251 63.0882 83.2251 61.7962Z" fill="black"/>
<path d="M179.815 102.248C179.815 104.176 179.527 105.927 178.95 107.502C178.373 109.065 177.561 110.405 176.513 111.521C175.466 112.626 174.207 113.484 172.735 114.095C171.276 114.695 169.663 114.995 167.898 114.995C166.132 114.995 164.52 114.695 163.06 114.095C161.601 113.484 160.347 112.626 159.3 111.521C158.252 110.405 157.44 109.065 156.863 107.502C156.287 105.927 155.998 104.176 155.998 102.248C155.998 100.332 156.287 98.5927 156.863 97.0295C157.44 95.4545 158.252 94.1146 159.3 93.0098C160.347 91.8933 161.601 91.0294 163.06 90.4182C164.52 89.807 166.132 89.5014 167.898 89.5014C169.663 89.5014 171.276 89.807 172.735 90.4182C174.207 91.0176 175.466 91.8756 176.513 92.9922C177.561 94.1088 178.373 95.4545 178.95 97.0295C179.527 98.5927 179.815 100.332 179.815 102.248ZM177.944 102.248C177.944 100.508 177.702 98.9453 177.22 97.5584C176.737 96.1715 176.054 94.9962 175.172 94.0324C174.289 93.0686 173.23 92.334 171.994 91.8286C170.758 91.3115 169.393 91.0529 167.898 91.0529C166.415 91.0529 165.055 91.3115 163.82 91.8286C162.584 92.334 161.518 93.0686 160.624 94.0324C159.741 94.9962 159.053 96.1715 158.558 97.5584C158.076 98.9453 157.835 100.508 157.835 102.248C157.835 103.999 158.076 105.568 158.558 106.955C159.053 108.33 159.741 109.5 160.624 110.464C161.518 111.427 162.584 112.162 163.82 112.667C165.055 113.173 166.415 113.425 167.898 113.425C169.393 113.425 170.758 113.173 171.994 112.667C173.23 112.162 174.289 111.427 175.172 110.464C176.054 109.5 176.737 108.33 177.22 106.955C177.702 105.568 177.944 103.999 177.944 102.248Z" fill="black"/>
<path d="M138.076 110.534C138.194 110.534 138.294 110.575 138.377 110.658L139.083 111.416C138.565 111.968 138 112.468 137.388 112.914C136.788 113.349 136.123 113.725 135.393 114.042C134.675 114.348 133.88 114.583 133.009 114.748C132.15 114.924 131.203 115.012 130.167 115.012C128.437 115.012 126.848 114.712 125.4 114.113C123.964 113.502 122.728 112.644 121.693 111.539C120.657 110.422 119.851 109.077 119.274 107.502C118.709 105.927 118.426 104.176 118.426 102.248C118.426 100.356 118.721 98.6279 119.309 97.0647C119.898 95.5015 120.722 94.1617 121.781 93.0451C122.84 91.9168 124.111 91.047 125.594 90.4358C127.077 89.8129 128.713 89.5014 130.502 89.5014C132.209 89.5014 133.721 89.7659 135.04 90.2948C136.358 90.8237 137.558 91.57 138.641 92.5338L138.094 93.3272C138 93.4682 137.853 93.5387 137.653 93.5387C137.511 93.5387 137.282 93.4094 136.964 93.1509C136.646 92.8923 136.205 92.6102 135.64 92.3046C135.075 91.9873 134.369 91.6993 133.521 91.4408C132.686 91.1822 131.679 91.0529 130.502 91.0529C128.996 91.0529 127.613 91.3115 126.353 91.8286C125.106 92.3458 124.029 93.0862 123.123 94.05C122.228 95.0138 121.528 96.1891 121.022 97.576C120.516 98.9629 120.263 100.52 120.263 102.248C120.263 104.011 120.516 105.586 121.022 106.973C121.54 108.36 122.246 109.535 123.14 110.499C124.035 111.451 125.088 112.185 126.3 112.703C127.525 113.208 128.843 113.461 130.255 113.461C131.15 113.461 131.944 113.402 132.639 113.284C133.345 113.167 133.992 112.991 134.581 112.755C135.169 112.52 135.716 112.232 136.223 111.892C136.729 111.551 137.229 111.151 137.723 110.693C137.782 110.646 137.841 110.611 137.9 110.587C137.959 110.552 138.018 110.534 138.076 110.534Z" fill="black"/>
<path d="M98.5384 114.73H96.7199V89.7835H98.5384V114.73Z" fill="black"/>
<path d="M66.0863 113.443C67.2868 113.443 68.3579 113.237 69.2995 112.826C70.2529 112.403 71.0591 111.821 71.7182 111.081C72.3774 110.34 72.8776 109.47 73.2189 108.471C73.572 107.461 73.7486 106.373 73.7486 105.21V89.7835H75.5494V105.21C75.5494 106.585 75.3316 107.872 74.8961 109.071C74.4606 110.258 73.8309 111.298 73.007 112.191C72.1949 113.073 71.2004 113.766 70.0234 114.272C68.8581 114.777 67.5458 115.03 66.0863 115.03C64.6268 115.03 63.3086 114.777 62.1316 114.272C60.9664 113.766 59.9718 113.073 59.1479 112.191C58.3358 111.298 57.712 110.258 57.2765 109.071C56.841 107.872 56.6232 106.585 56.6232 105.21V89.7835H58.4417V105.192C58.4417 106.356 58.6124 107.443 58.9537 108.454C59.3068 109.453 59.807 110.323 60.4544 111.063C61.1135 111.803 61.9138 112.385 62.8554 112.808C63.8088 113.232 64.8858 113.443 66.0863 113.443Z" fill="black"/>
<path d="M28.5929 113.284C30.7822 113.284 32.4358 112.814 33.554 111.874C34.6839 110.922 35.2489 109.588 35.2489 107.872C35.2489 107.084 35.0959 106.379 34.7898 105.756C34.4956 105.122 34.066 104.587 33.501 104.152C32.9361 103.705 32.2416 103.365 31.4177 103.129C30.5938 102.894 29.6581 102.777 28.6106 102.777H22.3254V113.284H28.5929ZM22.3254 91.2116V101.455H27.7278C28.8813 101.455 29.8641 101.308 30.6762 101.014C31.5001 100.72 32.171 100.332 32.6889 99.8503C33.2185 99.3684 33.607 98.8219 33.8541 98.2107C34.1013 97.5995 34.2249 96.9707 34.2249 96.3243C34.2249 94.6436 33.6893 93.3742 32.6183 92.5162C31.559 91.6464 29.9171 91.2116 27.6925 91.2116H22.3254ZM27.6925 89.7835C29.1167 89.7835 30.3526 89.9246 31.4001 90.2067C32.4476 90.4887 33.3127 90.906 33.9954 91.4584C34.678 91.999 35.1841 92.6631 35.5137 93.4506C35.8432 94.2381 36.008 95.1313 36.008 96.1304C36.008 96.7885 35.8903 97.4232 35.6549 98.0344C35.4313 98.6456 35.1017 99.2097 34.6662 99.7269C34.2425 100.244 33.7129 100.697 33.0773 101.084C32.4535 101.461 31.7355 101.748 30.9234 101.948C32.889 102.23 34.3955 102.883 35.4431 103.905C36.5024 104.916 37.032 106.25 37.032 107.907C37.032 108.965 36.8437 109.917 36.4671 110.763C36.0904 111.61 35.5431 112.326 34.8251 112.914C34.1072 113.502 33.2244 113.954 32.1769 114.272C31.1294 114.577 29.9406 114.73 28.6106 114.73H20.507V89.7835H27.6925Z" fill="black"/>
<path d="M155.456 133.675V146.762H155.011C154.931 146.762 154.863 146.749 154.808 146.725C154.758 146.694 154.709 146.644 154.659 146.577L146.148 135.219C146.167 135.404 146.176 135.58 146.176 135.747V146.762H145.342V133.675H145.815C145.901 133.675 145.966 133.687 146.009 133.712C146.058 133.73 146.111 133.777 146.167 133.851L154.659 145.18C154.641 144.995 154.632 144.819 154.632 144.653V133.675H155.456Z" fill="black"/>
<path d="M136.357 145.975L136.339 146.762H128.485V133.675H136.339V134.461H129.439V139.751H135.181V140.519H129.439V145.975H136.357Z" fill="black"/>
<path d="M118.503 133.675V146.762H117.549V140.491H109.343V146.762H108.389V133.675H109.343V139.779H117.549V133.675H118.503Z" fill="black"/>
<path d="M99.2149 144.56C99.2766 144.56 99.3291 144.582 99.3723 144.625L99.7428 145.023C99.4711 145.313 99.1748 145.575 98.8537 145.809C98.5388 146.037 98.1899 146.234 97.8071 146.401C97.4305 146.561 97.0137 146.684 96.5568 146.771C96.1061 146.863 95.609 146.91 95.0657 146.91C94.158 146.91 93.3245 146.752 92.565 146.438C91.8118 146.117 91.1634 145.667 90.6201 145.088C90.0768 144.502 89.6538 143.796 89.3513 142.97C89.0549 142.143 88.9067 141.225 88.9067 140.214C88.9067 139.221 89.0611 138.315 89.3698 137.495C89.6785 136.674 90.1107 135.972 90.6664 135.386C91.2221 134.794 91.8889 134.338 92.6669 134.017C93.4449 133.69 94.3031 133.527 95.2416 133.527C96.1369 133.527 96.9304 133.666 97.6219 133.943C98.3134 134.221 98.9432 134.612 99.5113 135.118L99.2241 135.534C99.1748 135.608 99.0976 135.645 98.9926 135.645C98.9185 135.645 98.7981 135.577 98.6314 135.441C98.4647 135.306 98.2332 135.158 97.9368 134.997C97.6404 134.831 97.2699 134.68 96.8254 134.544C96.387 134.409 95.8591 134.341 95.2416 134.341C94.4513 134.341 93.7258 134.476 93.0652 134.748C92.4107 135.019 91.8457 135.407 91.3703 135.913C90.901 136.419 90.5337 137.035 90.2682 137.763C90.0027 138.49 89.8699 139.307 89.8699 140.214C89.8699 141.138 90.0027 141.965 90.2682 142.692C90.5398 143.42 90.9103 144.036 91.3795 144.542C91.8488 145.041 92.4014 145.427 93.0374 145.698C93.6795 145.963 94.3711 146.096 95.112 146.096C95.5812 146.096 95.998 146.065 96.3623 146.003C96.7328 145.942 97.0724 145.849 97.3811 145.726C97.6898 145.602 97.9769 145.451 98.2424 145.273C98.5079 145.094 98.7703 144.884 99.0297 144.644C99.0605 144.619 99.0914 144.6 99.1223 144.588C99.1531 144.57 99.184 144.56 99.2149 144.56Z" fill="black"/>
<path d="M82.1997 134.479H77.5967V146.762H76.6427V134.479H72.0119V133.675H82.1997V134.479Z" fill="black"/>
<path d="M63.6905 146.762H62.7365V133.675H63.6905V146.762Z" fill="black"/>
<path d="M45.8199 139.714H46.5979C46.7152 139.714 46.8171 139.711 46.9035 139.705C46.9899 139.693 47.0671 139.674 47.135 139.649C47.2091 139.625 47.274 139.591 47.3295 139.548C47.3913 139.498 47.4561 139.44 47.524 139.372L52.8124 133.943C52.905 133.838 52.9946 133.767 53.081 133.73C53.1736 133.693 53.2817 133.675 53.4052 133.675H54.1646L48.4409 139.548C48.3236 139.671 48.2186 139.767 48.126 139.834C48.0396 139.902 47.9408 139.958 47.8297 140.001C47.9593 140.038 48.0766 140.096 48.1816 140.177C48.2866 140.251 48.3915 140.349 48.4965 140.473L54.5258 146.762H53.7571C53.5966 146.762 53.4793 146.743 53.4052 146.706C53.3372 146.663 53.2693 146.598 53.2014 146.512L47.663 140.852C47.595 140.784 47.5302 140.725 47.4685 140.676C47.4129 140.627 47.3481 140.587 47.274 140.556C47.2061 140.519 47.1227 140.494 47.0239 140.482C46.9313 140.463 46.8109 140.454 46.6627 140.454H45.8199V146.762H44.8659V133.675H45.8199V139.714Z" fill="black"/>
<path d="M0 105.228C2.72305 158.026 46.4563 200 100.007 200C116.386 200 131.846 196.073 145.496 189.111L142.792 187.552C129.874 193.859 115.354 197.399 100.007 197.399C48.4234 197.399 6.19261 157.412 2.70341 106.786L0 105.228Z" fill="black"/>
<path d="M197.292 92.9529C193.676 42.4506 151.502 2.60116 100.007 2.60116C84.7523 2.60116 70.3157 6.09814 57.457 12.3331L54.7483 10.7714C68.3413 3.88258 83.72 0 100.007 0C153.47 0 197.148 41.837 200 94.5142L197.292 92.9529Z" fill="black"/>
</svg>
