<svg viewBox="0 0 1024 912" fill="none" xmlns="http://www.w3.org/2000/svg">
<path d="M648.77 277.463V282.8H601.352V196H607.67V277.463H648.77Z" fill="black"/>
<path d="M541.84 277.586L541.717 282.8H489.698V196H541.717V201.214H496.017V236.302H534.049V241.394H496.017V277.586H541.84Z" fill="black"/>
<path d="M429.121 239.369C429.121 246.076 428.119 252.108 426.115 257.465C424.111 262.823 421.289 267.382 417.649 271.145C414.01 274.907 409.634 277.79 404.522 279.794C399.451 281.798 393.848 282.8 387.714 282.8H356V196H387.714C393.848 196 399.451 197.002 404.522 199.006C409.634 201.01 414.01 203.893 417.649 207.655C421.289 211.417 424.111 215.977 426.115 221.335C428.119 226.692 429.121 232.703 429.121 239.369ZM422.618 239.369C422.618 233.317 421.78 227.919 420.103 223.175C418.426 218.431 416.055 214.423 412.987 211.152C409.92 207.88 406.24 205.385 401.946 203.668C397.652 201.95 392.908 201.091 387.714 201.091H362.318V277.709H387.714C392.908 277.709 397.652 276.85 401.946 275.132C406.24 273.415 409.92 270.92 412.987 267.648C416.055 264.377 418.426 260.369 420.103 255.625C421.78 250.881 422.618 245.463 422.618 239.369Z" fill="black"/>
<path d="M1024 440.976C1024 453.221 1022.15 464.347 1018.44 474.352C1014.73 484.283 1009.51 492.795 1002.78 499.888C996.046 506.907 987.95 512.357 978.494 516.24C969.112 520.048 958.748 521.952 947.399 521.952C936.051 521.952 925.686 520.048 916.305 516.24C906.924 512.357 898.867 506.907 892.133 499.888C885.4 492.795 880.18 484.283 876.473 474.352C872.766 464.347 870.912 453.221 870.912 440.976C870.912 428.805 872.766 417.755 876.473 407.824C880.18 397.819 885.4 389.307 892.133 382.288C898.867 375.195 906.924 369.707 916.305 365.824C925.686 361.941 936.051 360 947.399 360C958.748 360 969.112 361.941 978.494 365.824C987.95 369.632 996.046 375.083 1002.78 382.176C1009.51 389.269 1014.73 397.819 1018.44 407.824C1022.15 417.755 1024 428.805 1024 440.976ZM1011.97 440.976C1011.97 429.925 1010.42 419.995 1007.32 411.184C1004.22 402.373 999.828 394.907 994.154 388.784C988.48 382.661 981.671 377.995 973.727 374.784C965.784 371.499 957.008 369.856 947.399 369.856C937.867 369.856 929.129 371.499 921.185 374.784C913.241 377.995 906.394 382.661 900.645 388.784C894.97 394.907 890.545 402.373 887.367 411.184C884.265 419.995 882.714 429.925 882.714 440.976C882.714 452.101 884.265 462.069 887.367 470.88C890.545 479.616 894.97 487.045 900.645 493.168C906.394 499.291 913.241 503.957 921.185 507.168C929.129 510.379 937.867 511.984 947.399 511.984C957.008 511.984 965.784 510.379 973.727 507.168C981.671 503.957 988.48 499.291 994.154 493.168C999.828 487.045 1004.22 479.616 1007.32 470.88C1010.42 462.069 1011.97 452.101 1011.97 440.976Z" fill="black"/>
<path d="M755.712 493.616C756.469 493.616 757.112 493.877 757.642 494.4L762.181 499.216C758.852 502.725 755.221 505.899 751.287 508.736C747.428 511.499 743.154 513.888 738.463 515.904C733.848 517.845 728.741 519.339 723.143 520.384C717.62 521.504 711.53 522.064 704.872 522.064C693.751 522.064 683.537 520.16 674.232 516.352C665.002 512.469 657.058 507.019 650.401 500C643.743 492.907 638.56 484.357 634.853 474.352C631.222 464.347 629.406 453.221 629.406 440.976C629.406 428.955 631.298 417.979 635.08 408.048C638.863 398.117 644.159 389.605 650.968 382.512C657.777 375.344 665.948 369.819 675.48 365.936C685.013 361.979 695.529 360 707.028 360C717.998 360 727.72 361.68 736.193 365.04C744.667 368.4 752.384 373.141 759.344 379.264L755.826 384.304C755.221 385.2 754.275 385.648 752.989 385.648C752.081 385.648 750.606 384.827 748.563 383.184C746.52 381.541 743.683 379.749 740.052 377.808C736.42 375.792 731.881 373.963 726.434 372.32C721.062 370.677 714.594 369.856 707.028 369.856C697.345 369.856 688.455 371.499 680.36 374.784C672.341 378.069 665.418 382.773 659.593 388.896C653.843 395.019 649.341 402.485 646.088 411.296C642.835 420.107 641.208 430 641.208 440.976C641.208 452.176 642.835 462.181 646.088 470.992C649.417 479.803 653.956 487.269 659.706 493.392C665.456 499.44 672.227 504.107 680.02 507.392C687.888 510.603 696.361 512.208 705.44 512.208C711.189 512.208 716.296 511.835 720.76 511.088C725.299 510.341 729.46 509.221 733.243 507.728C737.026 506.235 740.544 504.405 743.797 502.24C747.05 500.075 750.265 497.536 753.443 494.624C753.821 494.325 754.199 494.101 754.578 493.952C754.956 493.728 755.334 493.616 755.712 493.616Z" fill="black"/>
<path d="M515.689 520.272H504V361.792H515.689V520.272Z" fill="black"/>
<path d="M292.974 512.096C300.691 512.096 307.576 510.789 313.628 508.176C319.756 505.488 324.938 501.792 329.175 497.088C333.412 492.384 336.627 486.859 338.821 480.512C341.091 474.091 342.226 467.184 342.226 459.792V361.792H353.801V459.792C353.801 468.528 352.401 476.704 349.602 484.32C346.803 491.861 342.755 498.469 337.459 504.144C332.239 509.744 325.846 514.149 318.281 517.36C310.791 520.571 302.355 522.176 292.974 522.176C283.593 522.176 275.12 520.571 267.554 517.36C260.064 514.149 253.671 509.744 248.375 504.144C243.155 498.469 239.146 491.861 236.346 484.32C233.547 476.704 232.147 468.528 232.147 459.792V361.792H243.836V459.68C243.836 467.072 244.933 473.979 247.127 480.4C249.397 486.747 252.612 492.272 256.773 496.976C261.01 501.68 266.154 505.376 272.207 508.064C278.335 510.752 285.257 512.096 292.974 512.096Z" fill="black"/>
<path d="M51.975 511.088C66.0469 511.088 76.6764 508.101 83.8637 502.128C91.1265 496.08 94.758 487.605 94.758 476.704C94.758 471.701 93.7745 467.221 91.8074 463.264C89.9161 459.232 87.1547 455.835 83.5232 453.072C79.8918 450.235 75.4281 448.069 70.1323 446.576C64.8364 445.083 58.8218 444.336 52.0885 444.336H11.6887V511.088H51.975ZM11.6887 370.864V435.936H46.4144C53.8286 435.936 60.1458 435.003 65.366 433.136C70.6618 431.269 74.9742 428.805 78.303 425.744C81.7075 422.683 84.2041 419.211 85.7929 415.328C87.3816 411.445 88.176 407.451 88.176 403.344C88.176 392.667 84.7337 384.603 77.8491 379.152C71.0401 373.627 60.4862 370.864 46.1874 370.864H11.6887ZM46.1874 361.792C55.3417 361.792 63.2855 362.688 70.0188 364.48C76.7521 366.272 82.3127 368.923 86.7007 372.432C91.0887 375.867 94.3419 380.085 96.4602 385.088C98.5786 390.091 99.6377 395.765 99.6377 402.112C99.6377 406.293 98.8812 410.325 97.3681 414.208C95.9306 418.091 93.8123 421.675 91.0131 424.96C88.2895 428.245 84.885 431.12 80.7996 433.584C76.7899 435.973 72.1749 437.803 66.9548 439.072C79.5891 440.864 89.273 445.008 96.0063 451.504C102.815 457.925 106.22 466.4 106.22 476.928C106.22 483.648 105.009 489.696 102.588 495.072C100.167 500.448 96.6494 505.003 92.0344 508.736C87.4194 512.469 81.7453 515.344 75.012 517.36C68.2787 519.301 60.6376 520.272 52.0885 520.272H0V361.792H46.1874Z" fill="black"/>
<path d="M784.299 592V668.41H781.707C781.239 668.41 780.843 668.338 780.519 668.194C780.231 668.014 779.943 667.726 779.655 667.33L730.029 601.018C730.137 602.098 730.191 603.124 730.191 604.096V668.41H725.331V592H728.085C728.589 592 728.967 592.072 729.219 592.216C729.507 592.324 729.813 592.594 730.137 593.026L779.655 659.176C779.547 658.096 779.493 657.07 779.493 656.098V592H784.299Z" fill="black"/>
<path d="M689.332 663.82L689.224 668.41H643.432V592H689.224V596.59H648.994V627.478H682.474V631.96H648.994V663.82H689.332Z" fill="black"/>
<path d="M607.432 592V668.41H601.87V631.798H554.026V668.41H548.464V592H554.026V627.64H601.87V592H607.432Z" fill="black"/>
<path d="M509.385 656.422C509.745 656.422 510.051 656.548 510.303 656.8L512.463 659.122C510.879 660.814 509.151 662.344 507.279 663.712C505.443 665.044 503.409 666.196 501.177 667.168C498.981 668.104 496.551 668.824 493.887 669.328C491.259 669.868 488.361 670.138 485.193 670.138C479.901 670.138 475.041 669.22 470.613 667.384C466.221 665.512 462.441 662.884 459.273 659.5C456.105 656.08 453.639 651.958 451.875 647.134C450.147 642.31 449.283 636.946 449.283 631.042C449.283 625.246 450.183 619.954 451.983 615.166C453.783 610.378 456.303 606.274 459.543 602.854C462.783 599.398 466.671 596.734 471.207 594.862C475.743 592.954 480.747 592 486.219 592C491.439 592 496.065 592.81 500.097 594.43C504.129 596.05 507.801 598.336 511.113 601.288L509.439 603.718C509.151 604.15 508.701 604.366 508.089 604.366C507.657 604.366 506.955 603.97 505.983 603.178C505.011 602.386 503.661 601.522 501.933 600.586C500.205 599.614 498.045 598.732 495.453 597.94C492.897 597.148 489.819 596.752 486.219 596.752C481.611 596.752 477.381 597.544 473.529 599.128C469.713 600.712 466.419 602.98 463.647 605.932C460.911 608.884 458.769 612.484 457.221 616.732C455.673 620.98 454.899 625.75 454.899 631.042C454.899 636.442 455.673 641.266 457.221 645.514C458.805 649.762 460.965 653.362 463.701 656.314C466.437 659.23 469.659 661.48 473.367 663.064C477.111 664.612 481.143 665.386 485.463 665.386C488.199 665.386 490.629 665.206 492.753 664.846C494.913 664.486 496.893 663.946 498.693 663.226C500.493 662.506 502.167 661.624 503.715 660.58C505.263 659.536 506.793 658.312 508.305 656.908C508.485 656.764 508.665 656.656 508.845 656.584C509.025 656.476 509.205 656.422 509.385 656.422Z" fill="black"/>
<path d="M413.284 596.698H386.446V668.41H380.884V596.698H353.884V592H413.284V596.698Z" fill="black"/>
<path d="M317.884 668.41H312.322V592H317.884V668.41Z" fill="black"/>
<path d="M225.562 627.262H230.098C230.782 627.262 231.376 627.244 231.88 627.208C232.384 627.136 232.834 627.028 233.23 626.884C233.662 626.74 234.04 626.542 234.364 626.29C234.724 626.002 235.102 625.66 235.498 625.264L266.332 593.566C266.872 592.954 267.394 592.54 267.898 592.324C268.438 592.108 269.068 592 269.788 592H274.216L240.844 626.29C240.16 627.01 239.548 627.568 239.008 627.964C238.504 628.36 237.928 628.684 237.28 628.936C238.036 629.152 238.72 629.494 239.332 629.962C239.944 630.394 240.556 630.97 241.168 631.69L276.322 668.41H271.84C270.904 668.41 270.22 668.302 269.788 668.086C269.392 667.834 268.996 667.456 268.6 666.952L236.308 633.904C235.912 633.508 235.534 633.166 235.174 632.878C234.85 632.59 234.472 632.356 234.04 632.176C233.644 631.96 233.158 631.816 232.582 631.744C232.042 631.636 231.34 631.582 230.476 631.582H225.562V668.41H220V592H225.562V627.262Z" fill="black"/>
<path fill-rule="evenodd" clip-rule="evenodd" d="M911.092 636C841.97 792.096 685.703 901 503.999 901C322.296 901 166.029 792.096 96.9071 636H84.9023C154.715 798.331 316.083 912 503.999 912C691.916 912 853.284 798.331 923.096 636H911.092ZM117.097 236C193.678 101.612 338.257 11 503.999 11C669.742 11 814.321 101.612 890.902 236H903.515C825.872 95.3016 676.065 0 503.999 0C331.934 0 182.127 95.3016 104.484 236H117.097Z" fill="black"/>
</svg>
